<svg width="73" height="66" viewBox="0 0 73 66" fill="none" xmlns="http://www.w3.org/2000/svg">
<path d="M1.98004 3.66667C2.77533 3.66667 3.42004 3.01002 3.42004 2.2C3.42004 1.38999 2.77533 0.733337 1.98004 0.733337C1.18475 0.733337 0.540039 1.38999 0.540039 2.2C0.540039 3.01002 1.18475 3.66667 1.98004 3.66667Z" fill="white"/>
<path d="M19.08 3.66667C19.8753 3.66667 20.52 3.01002 20.52 2.2C20.52 1.38999 19.8753 0.733337 19.08 0.733337C18.2847 0.733337 17.64 1.38999 17.64 2.2C17.64 3.01002 18.2847 3.66667 19.08 3.66667Z" fill="white"/>
<path d="M36.36 3.66667C37.1553 3.66667 37.8 3.01002 37.8 2.2C37.8 1.38999 37.1553 0.733337 36.36 0.733337C35.5648 0.733337 34.92 1.38999 34.92 2.2C34.92 3.01002 35.5648 3.66667 36.36 3.66667Z" fill="white"/>
<path d="M53.46 3.66667C54.2553 3.66667 54.9 3.01002 54.9 2.2C54.9 1.38999 54.2553 0.733337 53.46 0.733337C52.6647 0.733337 52.02 1.38999 52.02 2.2C52.02 3.01002 52.6647 3.66667 53.46 3.66667Z" fill="white"/>
<path d="M70.56 3.66667C71.3553 3.66667 72 3.01002 72 2.2C72 1.38999 71.3553 0.733337 70.56 0.733337C69.7647 0.733337 69.12 1.38999 69.12 2.2C69.12 3.01002 69.7647 3.66667 70.56 3.66667Z" fill="white"/>
<path d="M1.98004 18.8833C2.77533 18.8833 3.42004 18.2267 3.42004 17.4167C3.42004 16.6067 2.77533 15.95 1.98004 15.95C1.18475 15.95 0.540039 16.6067 0.540039 17.4167C0.540039 18.2267 1.18475 18.8833 1.98004 18.8833Z" fill="white"/>
<path d="M19.08 18.8833C19.8753 18.8833 20.52 18.2267 20.52 17.4167C20.52 16.6067 19.8753 15.95 19.08 15.95C18.2847 15.95 17.64 16.6067 17.64 17.4167C17.64 18.2267 18.2847 18.8833 19.08 18.8833Z" fill="white"/>
<path d="M36.36 18.8833C37.1553 18.8833 37.8 18.2267 37.8 17.4167C37.8 16.6067 37.1553 15.95 36.36 15.95C35.5648 15.95 34.92 16.6067 34.92 17.4167C34.92 18.2267 35.5648 18.8833 36.36 18.8833Z" fill="white"/>
<path d="M53.46 18.8833C54.2553 18.8833 54.9 18.2267 54.9 17.4167C54.9 16.6067 54.2553 15.95 53.46 15.95C52.6647 15.95 52.02 16.6067 52.02 17.4167C52.02 18.2267 52.6647 18.8833 53.46 18.8833Z" fill="white"/>
<path d="M70.56 18.8833C71.3553 18.8833 72 18.2267 72 17.4167C72 16.6067 71.3553 15.95 70.56 15.95C69.7647 15.95 69.12 16.6067 69.12 17.4167C69.12 18.2267 69.7647 18.8833 70.56 18.8833Z" fill="white"/>
<path d="M1.98004 34.2834C2.77533 34.2834 3.42004 33.6267 3.42004 32.8167C3.42004 32.0067 2.77533 31.35 1.98004 31.35C1.18475 31.35 0.540039 32.0067 0.540039 32.8167C0.540039 33.6267 1.18475 34.2834 1.98004 34.2834Z" fill="white"/>
<path d="M19.08 34.2834C19.8753 34.2834 20.52 33.6267 20.52 32.8167C20.52 32.0067 19.8753 31.35 19.08 31.35C18.2847 31.35 17.64 32.0067 17.64 32.8167C17.64 33.6267 18.2847 34.2834 19.08 34.2834Z" fill="white"/>
<path d="M36.36 34.2834C37.1553 34.2834 37.8 33.6267 37.8 32.8167C37.8 32.0067 37.1553 31.35 36.36 31.35C35.5648 31.35 34.92 32.0067 34.92 32.8167C34.92 33.6267 35.5648 34.2834 36.36 34.2834Z" fill="white"/>
<path d="M53.46 34.2834C54.2553 34.2834 54.9 33.6267 54.9 32.8167C54.9 32.0067 54.2553 31.35 53.46 31.35C52.6647 31.35 52.02 32.0067 52.02 32.8167C52.02 33.6267 52.6647 34.2834 53.46 34.2834Z" fill="white"/>
<path d="M70.56 34.2834C71.3553 34.2834 72 33.6267 72 32.8167C72 32.0067 71.3553 31.35 70.56 31.35C69.7647 31.35 69.12 32.0067 69.12 32.8167C69.12 33.6267 69.7647 34.2834 70.56 34.2834Z" fill="white"/>
<path d="M1.98004 49.5C2.77533 49.5 3.42004 48.8433 3.42004 48.0333C3.42004 47.2233 2.77533 46.5667 1.98004 46.5667C1.18475 46.5667 0.540039 47.2233 0.540039 48.0333C0.540039 48.8433 1.18475 49.5 1.98004 49.5Z" fill="white"/>
<path d="M19.08 49.5C19.8753 49.5 20.52 48.8433 20.52 48.0333C20.52 47.2233 19.8753 46.5667 19.08 46.5667C18.2847 46.5667 17.64 47.2233 17.64 48.0333C17.64 48.8433 18.2847 49.5 19.08 49.5Z" fill="white"/>
<path d="M36.36 49.5C37.1553 49.5 37.8 48.8433 37.8 48.0333C37.8 47.2233 37.1553 46.5667 36.36 46.5667C35.5648 46.5667 34.92 47.2233 34.92 48.0333C34.92 48.8433 35.5648 49.5 36.36 49.5Z" fill="white"/>
<path d="M53.46 49.5C54.2553 49.5 54.9 48.8433 54.9 48.0333C54.9 47.2233 54.2553 46.5667 53.46 46.5667C52.6647 46.5667 52.02 47.2233 52.02 48.0333C52.02 48.8433 52.6647 49.5 53.46 49.5Z" fill="white"/>
<path d="M70.56 49.5C71.3553 49.5 72 48.8433 72 48.0333C72 47.2233 71.3553 46.5667 70.56 46.5667C69.7647 46.5667 69.12 47.2233 69.12 48.0333C69.12 48.8433 69.7647 49.5 70.56 49.5Z" fill="white"/>
<path d="M1.98004 64.9C2.77533 64.9 3.42004 64.2434 3.42004 63.4333C3.42004 62.6233 2.77533 61.9667 1.98004 61.9667C1.18475 61.9667 0.540039 62.6233 0.540039 63.4333C0.540039 64.2434 1.18475 64.9 1.98004 64.9Z" fill="white"/>
<path d="M19.08 64.9C19.8753 64.9 20.52 64.2434 20.52 63.4333C20.52 62.6233 19.8753 61.9667 19.08 61.9667C18.2847 61.9667 17.64 62.6233 17.64 63.4333C17.64 64.2434 18.2847 64.9 19.08 64.9Z" fill="white"/>
<path d="M36.36 64.9C37.1553 64.9 37.8 64.2434 37.8 63.4333C37.8 62.6233 37.1553 61.9667 36.36 61.9667C35.5648 61.9667 34.92 62.6233 34.92 63.4333C34.92 64.2434 35.5648 64.9 36.36 64.9Z" fill="white"/>
<path d="M53.46 64.9C54.2553 64.9 54.9 64.2434 54.9 63.4333C54.9 62.6233 54.2553 61.9667 53.46 61.9667C52.6647 61.9667 52.02 62.6233 52.02 63.4333C52.02 64.2434 52.6647 64.9 53.46 64.9Z" fill="white"/>
<path d="M70.56 64.9C71.3553 64.9 72 64.2434 72 63.4333C72 62.6233 71.3553 61.9667 70.56 61.9667C69.7647 61.9667 69.12 62.6233 69.12 63.4333C69.12 64.2434 69.7647 64.9 70.56 64.9Z" fill="white"/>
</svg>
