<svg width="113" height="100" viewBox="0 0 113 100" fill="none" xmlns="http://www.w3.org/2000/svg">
<path d="M2.56471 4.54546C3.76455 4.54546 4.73721 3.56863 4.73721 2.36364C4.73721 1.15866 3.76455 0.181824 2.56471 0.181824C1.36487 0.181824 0.392212 1.15866 0.392212 2.36364C0.392212 3.56863 1.36487 4.54546 2.56471 4.54546Z" fill="white"/>
<path d="M29.3589 4.54546C30.5587 4.54546 31.5314 3.56863 31.5314 2.36364C31.5314 1.15866 30.5587 0.181824 29.3589 0.181824C28.1591 0.181824 27.1864 1.15866 27.1864 2.36364C27.1864 3.56863 28.1591 4.54546 29.3589 4.54546Z" fill="white"/>
<path d="M56.334 4.54546C57.5338 4.54546 58.5065 3.56863 58.5065 2.36364C58.5065 1.15866 57.5338 0.181824 56.334 0.181824C55.1342 0.181824 54.1615 1.15866 54.1615 2.36364C54.1615 3.56863 55.1342 4.54546 56.334 4.54546Z" fill="white"/>
<path d="M83.1282 4.54546C84.328 4.54546 85.3007 3.56863 85.3007 2.36364C85.3007 1.15866 84.328 0.181824 83.1282 0.181824C81.9283 0.181824 80.9557 1.15866 80.9557 2.36364C80.9557 3.56863 81.9283 4.54546 83.1282 4.54546Z" fill="white"/>
<path d="M110.103 4.54546C111.303 4.54546 112.276 3.56863 112.276 2.36364C112.276 1.15866 111.303 0.181824 110.103 0.181824C108.903 0.181824 107.931 1.15866 107.931 2.36364C107.931 3.56863 108.903 4.54546 110.103 4.54546Z" fill="white"/>
<path d="M2.56471 28.3636C3.76455 28.3636 4.73721 27.3868 4.73721 26.1818C4.73721 24.9768 3.76455 24 2.56471 24C1.36487 24 0.392212 24.9768 0.392212 26.1818C0.392212 27.3868 1.36487 28.3636 2.56471 28.3636Z" fill="white"/>
<path d="M29.3589 28.3636C30.5587 28.3636 31.5314 27.3868 31.5314 26.1818C31.5314 24.9768 30.5587 24 29.3589 24C28.1591 24 27.1864 24.9768 27.1864 26.1818C27.1864 27.3868 28.1591 28.3636 29.3589 28.3636Z" fill="white"/>
<path d="M56.334 28.3636C57.5338 28.3636 58.5065 27.3868 58.5065 26.1818C58.5065 24.9768 57.5338 24 56.334 24C55.1342 24 54.1615 24.9768 54.1615 26.1818C54.1615 27.3868 55.1342 28.3636 56.334 28.3636Z" fill="white"/>
<path d="M83.1282 28.3636C84.328 28.3636 85.3007 27.3868 85.3007 26.1818C85.3007 24.9768 84.328 24 83.1282 24C81.9283 24 80.9557 24.9768 80.9557 26.1818C80.9557 27.3868 81.9283 28.3636 83.1282 28.3636Z" fill="white"/>
<path d="M110.103 28.3636C111.303 28.3636 112.276 27.3868 112.276 26.1818C112.276 24.9768 111.303 24 110.103 24C108.903 24 107.931 24.9768 107.931 26.1818C107.931 27.3868 108.903 28.3636 110.103 28.3636Z" fill="white"/>
<path d="M2.56471 52C3.76455 52 4.73721 51.0232 4.73721 49.8182C4.73721 48.6132 3.76455 47.6364 2.56471 47.6364C1.36487 47.6364 0.392212 48.6132 0.392212 49.8182C0.392212 51.0232 1.36487 52 2.56471 52Z" fill="white"/>
<path d="M29.3589 52C30.5587 52 31.5314 51.0232 31.5314 49.8182C31.5314 48.6132 30.5587 47.6364 29.3589 47.6364C28.1591 47.6364 27.1864 48.6132 27.1864 49.8182C27.1864 51.0232 28.1591 52 29.3589 52Z" fill="white"/>
<path d="M56.334 52C57.5338 52 58.5065 51.0232 58.5065 49.8182C58.5065 48.6132 57.5338 47.6364 56.334 47.6364C55.1342 47.6364 54.1615 48.6132 54.1615 49.8182C54.1615 51.0232 55.1342 52 56.334 52Z" fill="white"/>
<path d="M83.1282 52C84.328 52 85.3007 51.0232 85.3007 49.8182C85.3007 48.6132 84.328 47.6364 83.1282 47.6364C81.9283 47.6364 80.9557 48.6132 80.9557 49.8182C80.9557 51.0232 81.9283 52 83.1282 52Z" fill="white"/>
<path d="M110.103 52C111.303 52 112.276 51.0232 112.276 49.8182C112.276 48.6132 111.303 47.6364 110.103 47.6364C108.903 47.6364 107.931 48.6132 107.931 49.8182C107.931 51.0232 108.903 52 110.103 52Z" fill="white"/>
<path d="M2.56471 75.6363C3.76455 75.6363 4.73721 74.6595 4.73721 73.4545C4.73721 72.2495 3.76455 71.2727 2.56471 71.2727C1.36487 71.2727 0.392212 72.2495 0.392212 73.4545C0.392212 74.6595 1.36487 75.6363 2.56471 75.6363Z" fill="white"/>
<path d="M29.3589 75.6363C30.5587 75.6363 31.5314 74.6595 31.5314 73.4545C31.5314 72.2495 30.5587 71.2727 29.3589 71.2727C28.1591 71.2727 27.1864 72.2495 27.1864 73.4545C27.1864 74.6595 28.1591 75.6363 29.3589 75.6363Z" fill="white"/>
<path d="M56.334 75.6363C57.5338 75.6363 58.5065 74.6595 58.5065 73.4545C58.5065 72.2495 57.5338 71.2727 56.334 71.2727C55.1342 71.2727 54.1615 72.2495 54.1615 73.4545C54.1615 74.6595 55.1342 75.6363 56.334 75.6363Z" fill="white"/>
<path d="M83.1282 75.6363C84.328 75.6363 85.3007 74.6595 85.3007 73.4545C85.3007 72.2495 84.328 71.2727 83.1282 71.2727C81.9283 71.2727 80.9557 72.2495 80.9557 73.4545C80.9557 74.6595 81.9283 75.6363 83.1282 75.6363Z" fill="white"/>
<path d="M110.103 75.6363C111.303 75.6363 112.276 74.6595 112.276 73.4545C112.276 72.2495 111.303 71.2727 110.103 71.2727C108.903 71.2727 107.931 72.2495 107.931 73.4545C107.931 74.6595 108.903 75.6363 110.103 75.6363Z" fill="white"/>
<path d="M2.56471 99.4546C3.76455 99.4546 4.73721 98.4777 4.73721 97.2728C4.73721 96.0678 3.76455 95.0909 2.56471 95.0909C1.36487 95.0909 0.392212 96.0678 0.392212 97.2728C0.392212 98.4777 1.36487 99.4546 2.56471 99.4546Z" fill="white"/>
<path d="M29.3589 99.4546C30.5587 99.4546 31.5314 98.4777 31.5314 97.2728C31.5314 96.0678 30.5587 95.0909 29.3589 95.0909C28.1591 95.0909 27.1864 96.0678 27.1864 97.2728C27.1864 98.4777 28.1591 99.4546 29.3589 99.4546Z" fill="white"/>
<path d="M56.334 99.4546C57.5338 99.4546 58.5065 98.4777 58.5065 97.2728C58.5065 96.0678 57.5338 95.0909 56.334 95.0909C55.1342 95.0909 54.1615 96.0678 54.1615 97.2728C54.1615 98.4777 55.1342 99.4546 56.334 99.4546Z" fill="white"/>
<path d="M83.1282 99.4546C84.328 99.4546 85.3007 98.4777 85.3007 97.2728C85.3007 96.0678 84.328 95.0909 83.1282 95.0909C81.9283 95.0909 80.9557 96.0678 80.9557 97.2728C80.9557 98.4777 81.9283 99.4546 83.1282 99.4546Z" fill="white"/>
<path d="M110.103 99.4546C111.303 99.4546 112.276 98.4777 112.276 97.2728C112.276 96.0678 111.303 95.0909 110.103 95.0909C108.903 95.0909 107.931 96.0678 107.931 97.2728C107.931 98.4777 108.903 99.4546 110.103 99.4546Z" fill="white"/>
</svg>
