<svg width="20" height="19" viewBox="0 0 20 19" fill="none" xmlns="http://www.w3.org/2000/svg">
<path d="M14.1786 13.5H4.32142C3.86776 13.5 3.5 13.8358 3.5 14.25C3.5 14.6642 3.8678 15 4.32142 15H14.1786C14.6322 15 15 14.6642 15 14.25C15 13.8358 14.6322 13.5 14.1786 13.5Z" fill="#484D85"/>
<path d="M12.65 10H5.84999C5.38055 10 5 10.3358 5 10.75C5 11.1642 5.38059 11.5 5.84999 11.5H12.65C13.1195 11.5 13.5 11.1642 13.5 10.75C13.5 10.3358 13.1195 10 12.65 10Z" fill="#484D85"/>
<path fill-rule="evenodd" clip-rule="evenodd" d="M16.8182 7.45C16.8182 6.9806 17.1947 6.60001 17.6591 6.60001C18.1235 6.60001 18.5 6.9806 18.5 7.45V17.65C18.5 18.1194 18.1235 18.5 17.6591 18.5H0.840897C0.376517 18.5 0 18.1195 0 17.65V5.74998V2.34999C0 1.88059 0.376517 1.5 0.840897 1.5H4.20456H7.56819H10.9318H12.6136C13.0781 1.5 13.4545 1.88063 13.4545 2.35003C13.4545 2.81943 13.0781 3.20002 12.6136 3.20002H11.7727V5.75002C11.7727 6.21942 11.3962 6.60001 10.9318 6.60001H7.56819H4.20456H1.68183V16.8H16.8182V7.45ZM10.0909 3.20002H8.40908V4.90003H10.0909V3.20002ZM5.04546 3.20002H6.72729V4.90003H5.04546V3.20002ZM3.36367 3.20002H1.68183V4.90003H3.36367V3.20002Z" fill="#484D85"/>
<path d="M19.1667 1.66665H18.3334V0.833327C18.3334 0.373089 17.9603 0 17.5001 0C17.0399 0 16.6667 0.373128 16.6667 0.833327V1.66665H15.8334C15.3731 1.66665 15 2.03978 15 2.49998C15 2.96018 15.3731 3.33331 15.8333 3.33331H16.6667V4.16667C16.6667 4.62691 17.0398 5 17.5 5C17.9602 5 18.3333 4.62687 18.3333 4.16667V3.33335H19.1667C19.6269 3.33335 20 2.96022 20 2.50002C20 2.03982 19.6269 1.66665 19.1667 1.66665Z" fill="#484D85"/>
</svg>
