<svg width="172" height="50" viewBox="0 0 172 50" fill="none" xmlns="http://www.w3.org/2000/svg">
<g id="Group">
<path id="Rectangle" d="M0 24C0 10.7452 10.7452 0 24 0H86C99.2548 0 110 10.7452 110 24V50H24C10.7452 50 0 39.2548 0 26V24Z" fill="url(#paint0_linear)"/>
<path id="crms." fill-rule="evenodd" clip-rule="evenodd" d="M38.2 35C38.92 35 39.38 34.8933 39.58 34.68C39.78 34.4667 39.88 34 39.88 33.28V26.32C40.0133 22.0533 41.44 19.92 44.16 19.92C44.32 19.92 44.48 19.9333 44.64 19.96C44.8 19.9867 45.0133 20.02 45.28 20.06C45.5466 20.1 45.8 20.1333 46.04 20.16C46.44 20.2133 46.6933 20.1867 46.8 20.08C46.9066 19.9733 46.96 19.6933 46.96 19.24C46.96 18.1467 46.74 17.3267 46.3 16.78C45.86 16.2333 45.08 15.96 43.96 15.96C42.0133 15.96 40.6266 16.96 39.8 18.96C39.5333 17.3067 38.4 16.48 36.4 16.48C36 16.48 35.76 16.5733 35.68 16.76C35.6 16.9467 35.56 17.36 35.56 18V33.28C35.56 34 35.6666 34.4667 35.88 34.68C36.0933 34.8933 36.5466 35 37.24 35H38.2ZM26.56 35.28C28.16 35.28 29.4933 34.9867 30.56 34.4C31.7066 33.76 32.28 32.6533 32.28 31.08C32.28 30.6533 32.2133 30.42 32.08 30.38C31.9466 30.34 31.5466 30.4133 30.88 30.6C29.44 31 28.3333 31.2 27.56 31.2C24.0133 31.2 22.24 29.4 22.24 25.8C22.24 22.12 23.9066 20.28 27.24 20.28C28.2533 20.28 29.3333 20.5067 30.48 20.96C31.0933 21.1733 31.5 21.2267 31.7 21.12C31.9 21.0133 32 20.7067 32 20.2C32 18.68 31.4933 17.6267 30.48 17.04C29.3866 16.48 28.1733 16.2 26.84 16.2C23.72 16.2 21.42 17.0467 19.94 18.74C18.46 20.4333 17.72 22.8133 17.72 25.88C17.72 28.7867 18.44 31.08 19.88 32.76C21.32 34.44 23.5466 35.28 26.56 35.28ZM53.52 34.68C53.3066 34.8933 52.8533 35 52.16 35H51.16C50.4666 35 50.02 34.8933 49.82 34.68C49.62 34.4667 49.52 34 49.52 33.28V18C49.52 17.5467 49.5333 17.2333 49.56 17.06C49.5866 16.8867 49.6533 16.7467 49.76 16.64C49.8666 16.5333 50.0533 16.48 50.32 16.48C52.1866 16.48 53.2933 17.16 53.64 18.52C54.8666 16.9733 56.56 16.2 58.72 16.2C61.0666 16.2 62.68 17.2133 63.56 19.24C64.84 17.2133 66.6133 16.2 68.88 16.2C70.9333 16.2 72.4666 16.84 73.48 18.12C74.4933 19.4 75 21.2133 75 23.56V33.28C75 34 74.8933 34.4667 74.68 34.68C74.4666 34.8933 74.0133 35 73.32 35H72.32C71.6266 35 71.1733 34.8933 70.96 34.68C70.7466 34.4667 70.64 34 70.64 33.28V24.56C70.64 23.0133 70.4333 21.8533 70.02 21.08C69.6066 20.3067 68.8666 19.92 67.8 19.92C66.8933 19.92 66.1266 20.2733 65.5 20.98C64.8733 21.6867 64.4933 22.5733 64.36 23.64V33.28C64.36 34 64.26 34.4667 64.06 34.68C63.86 34.8933 63.4133 35 62.72 35H61.72C61 35 60.54 34.8933 60.34 34.68C60.14 34.4667 60.04 34 60.04 33.28V24.28C60.04 21.4267 59.0666 20 57.12 20C55.1733 20 54.08 21.2267 53.84 23.68V33.28C53.84 34 53.7333 34.4667 53.52 34.68ZM85.16 35.24C86.1733 35.24 87.08 35.1667 87.88 35.02C88.68 34.8733 89.4733 34.6133 90.26 34.24C91.0466 33.8667 91.66 33.2733 92.1 32.46C92.54 31.6467 92.76 30.6533 92.76 29.48C92.76 28.36 92.52 27.4067 92.04 26.62C91.56 25.8333 90.96 25.2667 90.24 24.92C89.52 24.5733 88.7466 24.2667 87.92 24C87.0933 23.7333 86.32 23.5333 85.6 23.4C84.88 23.2667 84.28 23.04 83.8 22.72C83.32 22.4 83.08 22 83.08 21.52C83.08 20.4267 84.1866 19.88 86.4 19.88C87.5466 19.88 89 20.08 90.76 20.48C91.4 20.6133 91.8 20.6333 91.96 20.54C92.12 20.4467 92.2 20.16 92.2 19.68C92.2 18.24 91.4533 17.28 89.96 16.8C88.76 16.4 87.5333 16.2 86.28 16.2C81.4 16.2 78.96 18.0667 78.96 21.8C78.96 23.0533 79.2933 24.0733 79.96 24.86C80.6266 25.6467 81.4333 26.1933 82.38 26.5C83.3266 26.8067 84.2733 27.06 85.22 27.26C86.1666 27.46 86.9733 27.74 87.64 28.1C88.3066 28.46 88.64 28.96 88.64 29.6C88.64 30.9867 87.4666 31.68 85.12 31.68C83.6 31.68 81.92 31.32 80.08 30.6C79.44 30.36 79.0266 30.28 78.84 30.36C78.6533 30.44 78.56 30.76 78.56 31.32C78.56 33.0533 79.2533 34.1333 80.64 34.56C81.92 35.0133 83.4266 35.24 85.16 35.24ZM100.06 34.76C99.5933 35.2133 98.9866 35.44 98.24 35.44C97.4666 35.44 96.84 35.2133 96.36 34.76C95.9066 34.3067 95.68 33.7067 95.68 32.96C95.68 32.2133 95.9133 31.62 96.38 31.18C96.8466 30.74 97.4666 30.52 98.24 30.52C98.9866 30.52 99.5933 30.74 100.06 31.18C100.527 31.62 100.76 32.2133 100.76 32.96C100.76 33.7067 100.527 34.3067 100.06 34.76Z" fill="#5860B0"/>
<path id="in.ua" fill-rule="evenodd" clip-rule="evenodd" d="M118.825 17.7C119.165 17.7 119.435 17.605 119.635 17.415C119.835 17.225 119.935 16.97 119.935 16.65C119.935 16.33 119.835 16.07 119.635 15.87C119.435 15.67 119.165 15.57 118.825 15.57C118.505 15.57 118.24 15.67 118.03 15.87C117.82 16.07 117.715 16.33 117.715 16.65C117.715 16.97 117.815 17.23 118.015 17.43C118.235 17.61 118.505 17.7 118.825 17.7ZM118.975 36C119.275 36 119.47 35.96 119.56 35.88C119.65 35.8 119.695 35.6 119.695 35.28V23.52C119.695 22.58 119.225 22.11 118.285 22.11C118.125 22.11 118.03 22.15 118 22.23C117.97 22.31 117.955 22.48 117.955 22.74V35.28C117.955 35.6 117.995 35.8 118.075 35.88C118.155 35.96 118.345 36 118.645 36H118.975ZM125.92 35.88C125.83 35.96 125.635 36 125.335 36H125.005C124.705 36 124.515 35.96 124.435 35.88C124.355 35.8 124.315 35.6 124.315 35.28V22.74C124.315 22.48 124.33 22.31 124.36 22.23C124.39 22.15 124.485 22.11 124.645 22.11C125.585 22.11 126.055 22.58 126.055 23.52V24.06C126.895 22.62 128.255 21.9 130.135 21.9C133.095 21.9 134.575 23.66 134.575 27.18V35.28C134.575 35.6 134.535 35.8 134.455 35.88C134.375 35.96 134.185 36 133.885 36H133.525C133.225 36 133.035 35.96 132.955 35.88C132.875 35.8 132.835 35.6 132.835 35.28V27.3C132.835 24.76 131.785 23.49 129.685 23.49C128.605 23.49 127.765 23.815 127.165 24.465C126.565 25.115 126.195 26 126.055 27.12V35.28C126.055 35.6 126.01 35.8 125.92 35.88ZM139.765 36.21C140.105 36.21 140.375 36.115 140.575 35.925C140.775 35.735 140.875 35.48 140.875 35.16C140.875 34.84 140.775 34.585 140.575 34.395C140.375 34.205 140.105 34.11 139.765 34.11C139.445 34.11 139.185 34.205 138.985 34.395C138.785 34.585 138.685 34.84 138.685 35.16C138.685 35.48 138.785 35.74 138.985 35.94C139.185 36.12 139.445 36.21 139.765 36.21ZM153.565 33.96C152.685 35.44 151.285 36.18 149.365 36.18C146.485 36.18 145.045 34.48 145.045 31.08V22.74C145.045 22.48 145.06 22.31 145.09 22.23C145.12 22.15 145.215 22.11 145.375 22.11C146.315 22.11 146.785 22.58 146.785 23.52V31.05C146.785 33.37 147.775 34.53 149.755 34.53C150.915 34.53 151.81 34.19 152.44 33.51C153.07 32.83 153.445 31.93 153.565 30.81V22.74C153.565 22.48 153.585 22.31 153.625 22.23C153.665 22.15 153.765 22.11 153.925 22.11C154.865 22.11 155.335 22.58 155.335 23.52V35.49C155.335 35.75 155.315 35.92 155.275 36C155.235 36.08 155.135 36.12 154.975 36.12C154.035 36.12 153.565 35.65 153.565 34.71V33.96ZM162.835 36.18C164.755 36.18 166.325 35.69 167.545 34.71C167.545 35.65 168.015 36.12 168.955 36.12C169.115 36.12 169.21 36.08 169.24 36C169.27 35.92 169.285 35.75 169.285 35.49V26.55C169.285 25.75 169.16 25.055 168.91 24.465C168.66 23.875 168.36 23.42 168.01 23.1C167.66 22.78 167.23 22.525 166.72 22.335C166.21 22.145 165.76 22.025 165.37 21.975C164.98 21.925 164.565 21.9 164.125 21.9C162.785 21.9 161.585 22.1 160.525 22.5C159.945 22.74 159.655 23.17 159.655 23.79C159.655 23.91 159.67 23.995 159.7 24.045C159.73 24.095 159.795 24.12 159.895 24.12C159.995 24.12 160.155 24.09 160.375 24.03C161.535 23.63 162.685 23.43 163.825 23.43C164.305 23.43 164.73 23.465 165.1 23.535C165.47 23.605 165.86 23.745 166.27 23.955C166.68 24.165 166.995 24.51 167.215 24.99C167.435 25.47 167.545 26.08 167.545 26.82V28.89C166.405 28.71 165.075 28.62 163.555 28.62C161.915 28.62 160.7 28.895 159.91 29.445C159.12 29.995 158.725 30.92 158.725 32.22C158.725 34.86 160.095 36.18 162.835 36.18ZM161.17 34.155C161.64 34.525 162.335 34.71 163.255 34.71C164.975 34.71 166.405 34.23 167.545 33.27V30.27C166.625 30.11 165.405 30.03 163.885 30.03C162.705 30.03 161.84 30.175 161.29 30.465C160.74 30.755 160.465 31.35 160.465 32.25C160.465 33.15 160.7 33.785 161.17 34.155Z" fill="white"/>
</g>
<defs>
<linearGradient id="paint0_linear" x1="110" y1="0" x2="0" y2="0" gradientUnits="userSpaceOnUse">
<stop stop-color="#50E3C2"/>
<stop offset="1" stop-color="#B8E986"/>
</linearGradient>
</defs>
</svg>
