<svg width="1440" height="1220" viewBox="0 0 1440 1220" fill="none" xmlns="http://www.w3.org/2000/svg">
<path d="M197.923 133.479C197.923 133.479 337.639 452.541 136.474 853.601C-64.6917 1254.66 221.798 1550.89 607.105 1553.17" stroke="white"/>
<path d="M291.344 230.422C291.344 230.422 434.381 441.747 307.329 688.361C180.277 934.975 -8.63947 1209.41 510.155 1457.06" stroke="white"/>
<path d="M361.098 1831.13C355.7 1825.73 -172.644 1649.7 -25.4551 1276.04C121.734 902.176 9.42188 733.615 -306.339 528.726" stroke="white"/>
<path d="M1351.98 0.415283C1351.98 0.415283 1362.56 348.54 1026.25 645.598C689.938 942.656 845.431 1324.41 1201.88 1470.34" stroke="white"/>
<path d="M1433.77 175.412C1433.77 175.412 1487.75 424.932 1277.66 606.364C1067.77 787.796 790.001 971.926 1179.05 1395.2" stroke="white"/>
<path d="M1014.21 1451.25C1011.3 1444.4 495.831 1116.41 771.94 824.539C1048.05 532.67 1006.53 334.216 790.001 26.3638" stroke="white"/>
</svg>
